<svg id="Layer_1" data-name="Layer 1" xmlns="http://www.w3.org/2000/svg" viewBox="0 0 134.96 200.92"><defs><style>.cls-1{fill:#1d1d1b;}.cls-2{fill:#fff;}</style></defs><title>MarkerIcon</title><path class="cls-1" d="M1.23,76.32c8.3,38.6,58.81,115,65.31,124.13,0.46,0.64,1,.55,1.23.22C80.4,182.75,126.2,114.56,134,72.86,141.94,30,100.58,0,67.24,0,30,0-7.29,36.69,1.23,76.32Z"/><path class="cls-2" d="M65.54,38a13.39,13.39,0,0,1,2.69-1.76c2.87-1,5.22,1,4.9,4.39a104.07,104.07,0,0,1-1.95,12.81c-1,4.31-2.91,5.53-7.3,5.4a6.18,6.18,0,0,0-.75.08c-0.36,2.62-.74,5.25-1.09,7.87-0.32,2.37-.61,4.75-0.91,7.12a2.15,2.15,0,0,0,0,.78c1.28,4.91.12,9.52-1.75,14a33.84,33.84,0,0,1-8,11.56,3.83,3.83,0,0,0-1.17,1.63,30.56,30.56,0,0,1-4.77,10.93c1.61,0.76,3.06,1.57,4.6,2.14,4.25,1.59,8.44,3.48,12.83,4.49,5.6,1.29,11.29,1.1,16.21-2.55a7.71,7.71,0,0,0,3.48-6.86,4.09,4.09,0,0,0-2.28-3.84,1.38,1.38,0,0,1-.65-0.42,14.11,14.11,0,0,1-.61-1.56,3.61,3.61,0,0,1,1.64-.46,5.71,5.71,0,0,1,3.77,3.5,10.05,10.05,0,0,1-3.15,11.16c-4,3.25-8.7,4.16-13.75,4.17-7.12,0-13.33-2.95-19.49-5.88-2.83-1.35-4.76-1.71-7.42.66a18.48,18.48,0,0,1-13.74,4.84,7.48,7.48,0,0,1-5.17-2,5.19,5.19,0,0,1,.37-7.6A13.19,13.19,0,0,1,34,109.24a59.35,59.35,0,0,1,7.67,2.12,1.36,1.36,0,0,0,1.94-.64c1-1.9,2.13-3.79,3.19-5.68l-0.34-.41a6.09,6.09,0,0,0-1.5.38,25.38,25.38,0,0,1-9.88,2.67,15.26,15.26,0,0,1-14.79-8.59c-2.5-5.39-.62-11.93,2.86-15.93,6.92-8,17.79-8.91,26.56-4.83l1.15,0.51c0.38-1.15.65-2.25,1.1-3.27a14.37,14.37,0,0,1,1.84-3.44c1.22-1.48,2.8-2.39,5-1.42,0.43-2.91.87-5.67,1.26-8.45Q61.48,52,62.88,41.8C63,40.87,63,39.9,63.16,39,63.53,37.27,64.21,37,65.54,38ZM34,105a22.73,22.73,0,0,0,12.58-3.95,3.87,3.87,0,0,0,1.85-3C49,93,49.71,88,50.23,82.92A2.51,2.51,0,0,0,49.06,81c-8.24-4.4-18-3.15-24.14,4.06a12.45,12.45,0,0,0-2.79,11.71A11.54,11.54,0,0,0,34,105Zm6.83,8.74c-3.31-1.39-6.45-2.49-9.76-2.06a23,23,0,0,0-6.32,2,3,3,0,0,0-1.78,3.38c0.34,1.5,1.62,2.11,3,2.4,3.11,0.65,6-.15,8.84-1.36A14.61,14.61,0,0,0,40.8,113.77ZM51.12,96.25l0.42,0.16a4.46,4.46,0,0,0,.54-0.47,30.87,30.87,0,0,0,6.41-12.31c0.78-3.12,1.07-6.29-.24-9.39-0.61-1.44-1.85-1.82-2.57-.53a23.56,23.56,0,0,0-2.36,6.24c-0.15.69,1.09,1.69,1.7,2.55a1,1,0,0,1,.27.38,3,3,0,0,1-.22,1.59,2.4,2.4,0,0,1-1.51.29,3.46,3.46,0,0,1-1-.38ZM63.69,54.47c0.24,0.5.4,1.51,0.85,1.65a2.69,2.69,0,0,0,2.29-.33,6,6,0,0,0,1.83-3c0.76-4,1.3-8,1.82-12.08A2,2,0,0,0,69.85,39a2.41,2.41,0,0,0-2.14.23,7.72,7.72,0,0,0-2.13,3.35C64.79,46.45,64.32,50.35,63.69,54.47Z"/><path class="cls-2" d="M92.54,95.13a21.62,21.62,0,0,1-2,2.53,4.72,4.72,0,0,1-5.12.84c-1.3-.67-2-3.19-1.81-4.87,0.43-3.27.86-6.53,1.14-9.81a2.79,2.79,0,0,0-.84-2,4,4,0,0,0-2.57.94c-1.53,1.64-1.74,3.81-2,6a89.66,89.66,0,0,1-1.65,10.17,5.62,5.62,0,0,1-4.53,4.53,18.27,18.27,0,0,1-3.88-.18,5.37,5.37,0,0,1-4.34,2.65c-2.65.14-4.27-1.27-4.13-3.93,0.16-3.08.65-6.13,1-9.2q0.33-2.8.74-5.6c0.13-.88.25-2,1.5-1.77s1.11,1.25,1,2.25c-0.61,4.3-1.22,8.6-1.72,12.91-0.12,1-.5,2.38,1,2.78a2.45,2.45,0,0,0,3-1.66,36.67,36.67,0,0,0,1.55-6.34c0.55-3.57.84-7.17,1.36-10.74a2.14,2.14,0,0,1,1.28-1.53c1,0,1.26,1,1.15,1.85-0.3,2.49-.66,5-1,7.46-0.29,2.22-.67,4.44-0.81,6.67,0,0.65.51,1.87,0.9,1.92a3.16,3.16,0,0,0,2.38-.77,5.44,5.44,0,0,0,1.38-2.74c0.63-3.66,1.08-7.35,1.59-11,0.15-1.09.14-2.21,0.39-3.27a4.64,4.64,0,0,0-.36-3.89,3.73,3.73,0,0,1,1.6-5,3.44,3.44,0,0,1,1.61.17,2.9,2.9,0,0,1-.64,1.17,2.32,2.32,0,0,0-.85,3.18c0.51,1.19,1.82,1.1,2.91.73,2.92-1,3.8-3.54,4.47-6.19a19.86,19.86,0,0,0,.32-2.27C85.29,71,84,70.9,82.77,70.94a2.22,2.22,0,0,0-.88.82,3.36,3.36,0,0,1-3.88.77c-1.32-.73-1.35-2-1.25-3.27,0.19-2.29.54-4.57,0.71-6.86a4.09,4.09,0,0,0-.68-1.59,3.68,3.68,0,0,0-1.57.79A10.62,10.62,0,0,0,73.79,65c-0.48,2.78-.71,5.61-1.06,8.42a2.52,2.52,0,0,1-.34,1.18,2.89,2.89,0,0,1-1,.55,2.49,2.49,0,0,1-.48-1c0.32-2.8.71-5.6,1.08-8.4a6,6,0,0,0,.15-1.55,2.37,2.37,0,0,0-.58-1.43,2.23,2.23,0,0,0-1.76.57,11.38,11.38,0,0,0-1.41,3.55c-0.46,2.46-.5,5-1.11,7.42C67,75.49,65.83,76.5,65,77.51a2.34,2.34,0,0,1-1.21,0,5.85,5.85,0,0,1,.33-1.3c0.55-1.08,1.49-2.06,1.7-3.18,0.59-3.18.88-6.42,1.29-9.64,0.11-.84.24-1.61,1.41-1.36a0.91,0.91,0,0,0,.7-0.21c1.22-1.17,2.54-1.35,3.59-.62,1.31-.75,2.32-1.67,3.49-1.93,1.85-.41,3,0.61,2.89,2.53-0.06,2.14-.38,4.27-0.58,6.4a4.93,4.93,0,0,0-.11,1.39,8.55,8.55,0,0,0,.66,1.58c0.62-.29,1.54-0.43,1.8-0.92a10.2,10.2,0,0,0,1-3.26c0.44-2.95.73-5.92,1.17-8.87a3.66,3.66,0,0,1,1-1.28,4,4,0,0,1,.63,1.58c-0.3,2.9-.78,5.79-1.08,8.69-0.09.83-.52,2.07,0.84,2.36a1.93,1.93,0,0,0,2.21-1.58,26.33,26.33,0,0,0,.9-4.26c0.3-2.23.47-4.47,0.7-6.71a1,1,0,0,1,.08-0.46c0.34-.45.72-0.88,1.08-1.32a4,4,0,0,1,.6,1.54c-0.21,2.29-.56,4.58-0.84,6.86-0.34,2.86-.48,5.75-1,8.56-0.51,2.52-1.47,4.94-2.32,7.66,2,1.22,1.64,3.62,1.4,5.92-0.27,2.54-.76,5.06-1.07,7.6-0.13,1.09-.55,2.39.86,3,0.92,0.43,2.58-.51,3.09-1.87A18.5,18.5,0,0,0,91,90.68c0.49-3.41.75-6.87,1.36-10.26,0.41-2.29,1.34-4.37,3.87-5.31,3.11-1.16,5.52,0,5.38,4a3.47,3.47,0,0,1-.25,1.68,5.41,5.41,0,0,1-1.51,1.11,4.92,4.92,0,0,1-.9-1.4,15.5,15.5,0,0,1,0-2c-0.11-1.2-.89-1.59-2-1.08-1.95.9-2,2.83-2.35,4.52-0.44,2.46-.6,5-0.93,7.46-0.19,1.47-.19,3,1.2,3.78,1.59,0.9,3.22.22,4.52-.78a7.6,7.6,0,0,0,3-5c1-7.26,1.91-14.52,2.86-21.78a35.83,35.83,0,0,1,.67-4.49c0.15-.57,1-1,1.49-1.44a4.34,4.34,0,0,1,.72,1.77c-0.35,3-.87,6-1.3,9a13.46,13.46,0,0,0,0,1.74l1.38-.73c2.31-1.24,4.81-.32,5.21,2.26a25.85,25.85,0,0,1-.19,6.2c-0.17,1.87-.58,3.72-0.8,5.59-0.12,1-.25,2.29,1,2.65a2.35,2.35,0,0,0,2.79-1.54,19.26,19.26,0,0,0,1-2.94c0.26-.93.42-2,1.73-1.75s0.93,1.35.73,2.06c-0.77,2.78-1.46,5.67-4.83,6.58-2.59.69-5-.89-4.85-3.55,0.16-3.33.7-6.64,1.07-10,0.15-1.32.73-2.8-1-3.53-1-.43-2.71.62-3.25,2.37a45.62,45.62,0,0,0-1.21,6c-0.46,2.73-.86,5.47-1.28,8.2C103.53,95.24,95.95,97.54,92.54,95.13Z"/><path class="cls-2" d="M40.18,71.54C32.5,71.46,26.55,67,24.71,60.36a15,15,0,0,1,6.72-17.13c4-2.34,8.25-3.1,12.6-1a8.85,8.85,0,0,1,3.17,13.48c-0.56.73-1.29,1.35-2.26,0.69s-0.38-1.49.11-2.14c1.55-2.06,2.06-4.28.83-6.61a7,7,0,0,0-6.51-3.92A12.4,12.4,0,0,0,26.81,54.63c-0.8,6.14,3.33,11.94,9.28,13.76,8.79,2.69,19.28-4.46,19.54-14.55,0.1-3.72-1.37-7-3.4-10.08a50.37,50.37,0,0,1-4.87-8.55A9.17,9.17,0,0,1,55,22.85c2.78-.21,5.21.61,6.58,3.28a5.45,5.45,0,0,1-.76,6.43,6.15,6.15,0,0,1-2.42,1.62c-0.46.18-1.17-.29-1.77-0.47,0.29-.58.42-1.44,0.89-1.69a3.44,3.44,0,0,0,.61-6,5,5,0,0,0-5.2,0c-3.32,2-4.52,5.53-2.87,9.1a42.31,42.31,0,0,0,3.63,6c2.87,4.19,5,8.59,4.55,13.86a17,17,0,0,1-5.84,11.48A18.31,18.31,0,0,1,40.18,71.54Z"/><path class="cls-2" d="M87.85,31.34c0.18-.21.28-0.33,0.39-0.44C90,29.23,91.44,28.82,93,29.57a4.76,4.76,0,0,1,2.4,4.75c-0.28,2.49-.71,5-1.07,7.43a15,15,0,0,0-.38,3.1C94,45.63,94.51,47,94.84,47a4,4,0,0,0,2.73-1,9,9,0,0,0,1.33-3A4.86,4.86,0,0,0,99.14,42c0.13-.9.6-1.58,1.54-1.37a1.34,1.34,0,0,1,.92,2,24.35,24.35,0,0,1-2.09,4.84,6.44,6.44,0,0,1-3.08,2.22,3.56,3.56,0,0,1-5-3.6c0-2.61.49-5.2,0.75-7.81,0.15-1.51.4-3,.42-4.52,0-1.76-1.07-2.36-2.6-1.45-1.81,1.08-2.45,2.9-2.74,4.87-0.54,3.67-1,7.35-1.59,11a7.91,7.91,0,0,1-3.38,5.62,5.45,5.45,0,0,1-5,.61A1.87,1.87,0,0,0,76,54.8a19.12,19.12,0,0,1-2.46,1.83c-0.42.19-1.19-.37-1.8-0.58,0.2-.51.25-1.31,0.61-1.49,2.26-1.1,2.74-3.07,3-5.3q0.84-7.24,1.9-14.46c0.08-.52.92-0.92,1.41-1.38,0.36,0.53,1.08,1.09,1,1.59-0.27,3-.74,6-1.1,9-0.24,2-.5,4-0.59,6.08a2.24,2.24,0,0,0,.84,1.82,2.34,2.34,0,0,0,2.09-.4,6.58,6.58,0,0,0,1.77-2.87c0.64-2.63,1-5.31,1.45-8s0.64-5.3,1-7.95C85.41,31,86.13,30.66,87.85,31.34Z"/><path class="cls-2" d="M81.58,27.37a2.21,2.21,0,0,1-2.23,2.48A1.63,1.63,0,0,1,77.5,28a2.31,2.31,0,0,1,2.18-2.53A1.88,1.88,0,0,1,81.58,27.37Z"/><path class="cls-2" d="M93.65,64.35c-0.54,2.09-.92,4-2.9,5a2.58,2.58,0,0,1-1.21-.14,2.21,2.21,0,0,1,.19-1.11c1.5-.77,1.83-2.16,2.19-3.61a3.16,3.16,0,0,1,1-1Z"/></svg>