<svg id="Layer_1" data-name="Layer 1" xmlns="http://www.w3.org/2000/svg" viewBox="0 0 652 652">
    <defs>
        <style>.cls-1{fill:none;stroke:#fff;stroke-miterlimit:10;stroke-width:16px;}.cls-2{fill:#fefefe;}</style>
    </defs>
    <title>icon_work</title>
    <circle class="cls-1" cx="325.5" cy="325.5" r="318"/>
    <path class="cls-2" d="M309.81,260.72c-6.66-11.13-5-23.25,3.65-29.9,6.48-5,20.73-3.82,26.65,2.15,7.15,7.22,7.63,19.13,1.1,27.51,3,1.24,6,2.34,8.87,3.76a3.75,3.75,0,0,0,4.12,0c2.17-1.29.42-2.78,0.16-3.78-2.7-10.21,1-20,10.51-23.86,13.33-5.39,29,.89,28.59,17.61-0.14,5.77,1.8,7.45,6.72,9,6,1.94,12.93,4.23,15.84,10,3.22,6.41,7,5,11.64,3.35a51.89,51.89,0,0,0,15.51-8.45c3.75-3.09,8.51-3,11.12,0,2.43,2.79,2.21,9.16-1,11.63-11.92,9.21-25,15.2-40.57,12.32-7.93-1.46-8.15-1.41-7,6.21,1.53,10,2.82,20.16,5,30.07,3.16,14.39,7,28.64,10.6,42.93,3,11.91,6.64,23.68,9.09,35.7,1.91,9.36-1.33,16-13,15-5-.44-7.63-3.44-8.82-8q-7-26.87-13.91-53.75c-1.43-5.55-2.68-11.15-4.39-16.62-0.24-.76.67-3.27-2.1-2.9s-2.55,1.93-2.55,3.84q0,23.5,0,47c0,6.83,0,13.67,0,20.5s-3.81,10-11.33,9.94c-7,0-10.64-3.4-10.65-10.12,0-21.67-.13-43.33,0-65,0.08-10-2.17-19.63-3.38-29.42-1-8.14-2.85-16.19-3.48-24.34-0.29-3.74-2.23-5.65-4.43-7.84-1.49-1.48-2.39-.75-2.68.91a23.52,23.52,0,0,0-.09,4q0,59.75,0,119.5c0,3.17-.18,6.21-2.13,8.94-4,5.54-9.88,3.81-14.66,3-4.42-.75-6.22-5.41-6.21-10.13q0-30.5,0-61c0-1.72.63-3.6-.88-5.47-1.71,1.49-1.06,3.39-1.07,5q-0.07,30.5,0,61c0,4.72-1.67,8.56-5.78,10.72-3.64,1.91-12.46-.13-14.81-2.79s-2.44-5.64-2.44-8.82q0-59.75-.06-119.5c0-2,1.34-5.73-1.53-5.77-2.15,0-4.87,2.81-5.34,5.82-1.15,7.46-2,15-3.08,22.45-1.08,7.81-2,15.65-3.4,23.4a33.58,33.58,0,0,0-.57,5.89q0,34.5,0,69c0,7.33-3.49,10.59-11.2,10.58-7.29,0-10.78-3.37-10.79-10.49q0-31.75,0-63.5c0-1,0-2,0-3,0-1.93.54-4.2-2.59-4.23-2.41,0-1.94,2.27-2.24,3.36-3.18,11.69-6.15,23.45-9.11,35.2-2.76,11-5.39,21.94-8.21,32.88-2.15,8.37-8.18,11.88-16.13,9.6-5.36-1.53-8.22-8.21-6.41-15.37,6.64-26.37,13.65-52.65,19.86-79.12,2.65-11.3,3.66-23,5.43-34.48,0.46-3-1.94-1.94-2.86-1.64-14.68,4.78-27.62-.31-39.9-7.48-3.44-2-8.46-3.78-7.9-9.74,0.27-2.86-.07-5.57,3.24-7.08s6.47-1.27,9.22,1.07c5.51,4.69,12,7.51,18.75,9.58,3.42,1,6.09,1.14,8-3.41,2.78-6.48,10.09-7.84,15.71-11a3.08,3.08,0,0,1,1-.16c5-.82,6.77-3.25,6.32-8.74-0.71-8.55,3.54-15.16,11.71-18.05,7.43-2.63,15.24-2.43,21.53,3S298.7,252,297.22,260c-0.26,1.4-1.64,2.74-.07,4.21,1.8,1.69,3.41.43,5-.3C304.53,262.78,306.68,261.18,309.81,260.72Z"/>
    <circle class="cls-1" cx="325.75" cy="324.99" r="218.06"/>
</svg>