<svg id="Layer_1" data-name="Layer 1" xmlns="http://www.w3.org/2000/svg" viewBox="0 0 629.16 629.16">
  <defs>
    <style>
      .cls-1 {
        fill: #fff;
      }

      .cls-2 {
        fill: none;
        stroke: #fff;
        stroke-miterlimit: 10;
        stroke-width: 15px;
      }
    </style>
  </defs>
  <title>icon_forma</title>
  <path class="cls-1" d="M257,475.07c-71.32-.25-126.13-24-170.62-70.77C42.21,357.93,22.32,302,25,238.24c2.22-52.33,21.38-98.73,56-137.16C126.51,50.61,184.2,23.92,253,25c64.09,1,118.55,25.17,162.25,72,43.51,46.66,62.61,102.46,59.69,166.12-2.24,48.86-19,92.55-50.15,129.49C379.6,446.17,321.43,474.68,257,475.07ZM138.22,427.73c1-3.22,1.73-6.08,2.77-8.81,3-7.77,6.11-15.48,9.1-23.24,2.3-6,4.41-12,6.74-17.95,3.28-8.39,6.74-16.71,10-25.1q5.63-14.37,11.08-28.82c2-5.21,3.56-10.57,5.59-15.75,5.52-14,11.26-28,16.78-42,4.67-11.88,9.19-23.81,13.72-35.75,0.45-1.18,1-2.71.6-3.75-5-13.22-10.12-26.36-15.12-39.56-3.94-10.41-7.6-20.92-11.61-31.3-2.46-6.37-5.33-12.58-8.11-19.08a13.23,13.23,0,0,0-2.44,1.08c-11.76,8.7-23.55,17.37-35.22,26.19-8,6-15.65,12.45-23.68,18.39-7.25,5.37-14.82,10.28-22.2,15.48-5.11,3.6-11.67,1.41-13.22-4.66-2.83-11.1-5.41-22.26-8.28-33.34-1.4-5.4-3.23-10.69-4.91-16.21C18.71,221.55,28.9,357.48,138.22,427.73Zm182.6-291.45a67.49,67.49,0,0,0-3.75,7.39C313.81,152.76,311,162,307.54,171c-6.64,17.25-13.77,34.31-20.31,51.59-1.06,2.8-.8,6.54,0,9.51,1.24,4.37,3.78,8.35,5.37,12.64,5.8,15.66,11.37,31.41,17.17,47.08q6,16.35,12.47,32.56c6.74,16.91,13.82,33.68,20.44,50.64,4.64,11.88,8.67,24,13.14,36,2,5.43,4.45,10.72,7,16.77,46.93-31.93,77.35-74.13,91.34-128.68,14.14-55.16,4.13-106.23-22.63-155.79-1.05,1.4-2.19,2.3-2.49,3.43-1.52,5.52-2.77,11.12-4.19,16.66-2.73,10.62-5.42,21.26-8.34,31.83-1.21,4.39-6.65,6.24-10.54,3.65-4.1-2.72-8-5.73-11.95-8.67-7.25-5.42-14.41-11-21.7-16.32-11.78-8.66-23.63-17.21-35.45-25.81C331.58,144.2,326.3,140.3,320.82,136.29Zm83.92,43.18c1.87-6.82,3.56-13,5.29-19.24,2.51-9,5.25-17.9,7.47-26.95,0.79-3.19,1.73-7.57.23-9.85a98.42,98.42,0,0,0-15-18.26c-10.48-9.7-21.52-18.82-32.72-27.68a101.83,101.83,0,0,0-18.33-11.55A300.19,300.19,0,0,0,321,52.78c-9.36-3.34-19.12-5.59-28.81-7.9-1.74-.42-4.52.7-5.9,2-5.23,5.09-10.15,10.5-15,15.92-3.16,3.5-6.07,7.22-9,10.8ZM238.35,73.63l-10-11.1c-4.09-4.54-8.21-9-12.26-13.61-3.18-3.58-6.61-5.28-11.64-3.56-12.2,4.19-24.8,7.32-36.73,12.15a170.45,170.45,0,0,0-30.11,15.57c-11.54,7.64-22.35,16.48-32.92,25.45-6.22,5.27-11.65,11.57-16.9,17.85-3.92,4.68-7.4,9.44-4.51,16.78,3.28,8.31,4.95,17.26,7.22,26,1.72,6.58,3.28,13.21,5,20.4Zm43.24,184c-4,5.38-7.19,9.95-10.71,14.19-7.8,9.38-15.77,18.62-23.71,27.88-6.34,7.39-12.83,14.66-19.1,22.11-8.14,9.66-16,19.51-24.22,29.14-8.63,10.18-17.58,20.08-26.11,30.34-3.74,4.51-7.62,9.23-10,14.51-5.58,12.55-10.28,25.49-15.29,38.15,6.85,5.34,5.76,5.54,11.24-.46,2.19-2.4,3.85-5.27,5.94-7.77,7.26-8.68,14.6-17.29,21.92-25.91q11.5-13.55,23-27.09Q225.77,359.57,237,346.4q11.68-13.73,23.37-27.44c9.72-11.41,19.48-22.79,29.13-34.26Zm28.33,77.08-99.64,120.9c1.9,1,3,1.94,4.19,2.09,6.72,0.81,13.49,1.21,20.19,2.18,5.28,0.77,8.5-2,11.35-5.63,6.9-8.76,13.58-17.7,20.57-26.38,6.72-8.33,13.74-16.42,20.6-24.64,8.35-10,26-29.66,35.22-38.8ZM260.9,111c-2.69-3.12-5.29-6.32-7.87-9.53-3.26-4.06-6.46-8.16-9.83-12.44l-19.3,14.45c8.93,10.29,17.15,20.2,25.84,29.67,11.89,13,24.13,25.6,36.24,38.36,0.87,0.91,1.91,1.66,3.29,2.85,3-5,10-12.71,12.9-16.24Zm6.32,109.79-61.64-61.6c0.71,2.65,2.14,5,3.09,7.59,5.58,15.2,10.78,30.54,16.79,45.57,1.2,3,.8,8.49,6.63,8.46C243.54,220.78,255,220.82,267.22,220.82ZM339.74,411L311.56,449.9l0.89,1L348.89,436ZM250.57,63.24L270.9,41.38a8.28,8.28,0,0,0-4.78-1.63c-10.32,0-20.63-.08-30.95.05-1.63,0-3.26,1-4.88,1.48a21.75,21.75,0,0,0,2.48,4C238.48,51.16,244.3,56.94,250.57,63.24ZM216.32,266.79l27.43-32c-5,0-8.4-.26-11.69.12-1.46.17-3.51,1.32-4,2.56C224,246.89,220.37,256.5,216.32,266.79Z" transform="translate(64.58 64.58)"/>
  <circle class="cls-2" cx="314.58" cy="314.58" r="307.08"/>
  <circle class="cls-2" cx="314.58" cy="314.58" r="217.75"/>
</svg>
